<mxfile host="app.diagrams.net" modified="2024-03-22T09:29:18.545Z" agent="Mozilla/5.0 (Windows NT 10.0; Win64; x64) AppleWebKit/537.36 (KHTML, like Gecko) Chrome/122.0.0.0 Safari/537.36 Edg/122.0.0.0" version="24.0.7" etag="dUDNa773ZG0dVlaBT4g2" type="github">
  <diagram name="第 1 页" id="AKplTrD6MFR_9dPZBOiM">
    <mxGraphModel>
      <root>
        <mxCell id="0" />
        <mxCell id="1" parent="0" />
      </root>
    </mxGraphModel>
  </diagram>
</mxfile>
